<?xml version="1.0" standalone="no"?>
<!DOCTYPE svg PUBLIC "-//W3C//DTD SVG 20010904//EN"
 "http://www.w3.org/TR/2001/REC-SVG-20010904/DTD/svg10.dtd">
<svg version="1.0" xmlns="http://www.w3.org/2000/svg"
 width="1073.000000pt" height="1073.000000pt" viewBox="0 0 1073.000000 1073.000000"
 preserveAspectRatio="xMidYMid meet">
<metadata>
Created by potrace 1.14, written by Peter Selinger 2001-2017
</metadata>
<g transform="translate(0.000000,1073.000000) scale(0.100000,-0.100000)"
fill="#000000" stroke="none">
<path d="M844 7250 c-12 -5 -31 -28 -43 -53 l-22 -45 4 -1538 c3 -1517 3
-1540 24 -1629 100 -434 374 -641 958 -722 140 -19 696 -22 875 -4 58 5 146
13 195 16 50 4 97 8 105 11 8 2 62 10 120 19 58 8 161 24 230 35 228 38 489
60 765 66 504 11 818 -35 1071 -157 98 -48 140 -80 223 -173 29 -33 38 -37 65
-32 19 4 41 19 56 38 118 157 339 251 715 304 177 26 741 26 980 1 167 -18
193 -21 445 -61 85 -14 176 -27 203 -30 26 -3 51 -7 55 -9 4 -3 50 -8 102 -11
52 -4 142 -11 200 -17 146 -15 725 -15 825 -1 44 6 107 14 140 18 33 3 67 10
75 14 8 4 35 10 60 14 24 4 76 17 116 30 351 115 542 318 616 656 l23 105 0
1542 0 1542 -21 28 c-58 77 -114 67 -164 -31 -89 -172 -291 -294 -640 -386
-167 -44 -335 -60 -630 -60 -333 0 -673 24 -865 60 -27 5 -72 11 -100 15 -53
6 -117 15 -150 21 -207 41 -676 69 -1000 60 -264 -8 -299 -11 -436 -37 -271
-50 -430 -149 -569 -356 l-49 -73 -32 58 c-18 31 -73 98 -123 148 -172 171
-352 232 -751 255 -220 13 -808 1 -864 -17 -8 -3 -40 -7 -70 -10 -52 -5 -100
-12 -351 -50 -89 -13 -232 -31 -430 -55 -47 -5 -251 -12 -455 -14 -380 -5
-455 0 -640 39 -374 79 -633 222 -712 393 -37 79 -76 105 -129 83z m150 -459
c4 -5 34 -28 68 -51 180 -123 461 -219 768 -261 101 -14 700 -20 815 -8 44 4
134 13 200 18 108 10 193 21 510 67 380 55 571 67 926 61 167 -3 323 -9 346
-12 285 -41 394 -84 508 -199 79 -80 127 -163 150 -257 17 -70 33 -369 20
-369 -5 0 -22 15 -39 34 -122 132 -311 217 -551 246 -386 48 -906 33 -1375
-40 -184 -29 -495 -67 -660 -81 -156 -14 -676 -18 -750 -7 -25 4 -81 12 -125
17 -44 6 -96 15 -115 20 -19 5 -82 22 -140 37 -283 74 -490 199 -553 334 -19
40 -22 67 -25 253 -3 139 -1 207 6 207 6 0 13 -4 16 -9z m8815 -65 c22 -23 23
-29 19 -193 -4 -191 -11 -214 -90 -289 -185 -178 -601 -306 -1038 -321 -202
-6 -700 18 -855 42 -125 20 -129 19 -162 -14 -61 -61 -54 -179 14 -226 11 -8
104 -24 214 -37 171 -20 241 -22 599 -23 351 0 419 2 510 19 297 52 489 116
673 223 68 40 81 44 102 35 34 -16 37 -37 33 -218 -3 -175 -10 -201 -71 -265
-62 -65 -117 -103 -227 -156 -129 -62 -332 -126 -442 -139 -29 -4 -56 -8 -61
-11 -24 -14 -261 -33 -422 -33 -210 0 -577 19 -675 34 -56 9 -211 17 -228 12
-26 -8 -62 -81 -62 -124 0 -40 21 -92 46 -113 40 -34 395 -68 799 -76 240 -5
289 -3 435 16 337 44 570 115 773 235 63 37 82 44 97 36 35 -18 40 -46 40
-198 0 -208 -18 -253 -140 -347 -162 -125 -434 -216 -785 -264 -163 -22 -625
-13 -960 20 -245 25 -238 25 -268 -10 -49 -59 -45 -161 8 -211 22 -21 45 -26
183 -41 257 -29 547 -42 807 -35 132 3 263 10 290 15 28 4 84 14 125 21 97 16
271 61 355 92 97 36 241 106 284 140 13 10 34 18 47 18 39 0 54 -35 54 -125
-1 -283 -154 -498 -425 -595 -129 -46 -295 -82 -440 -95 -88 -7 -640 -7 -766
0 -110 7 -412 41 -484 55 -27 5 -72 12 -100 15 -27 3 -70 10 -95 15 -54 12
-262 37 -415 50 -137 12 -786 12 -880 0 -325 -40 -535 -100 -687 -196 l-38
-25 2 1328 c4 1467 -1 1370 66 1500 107 210 291 306 657 341 91 9 675 9 785 0
140 -11 292 -28 340 -38 25 -5 70 -12 100 -15 30 -3 88 -10 128 -17 82 -14 82
-14 53 -99 -54 -158 -151 -281 -268 -340 -65 -33 -73 -34 -178 -34 -60 1 -209
7 -330 14 -208 12 -510 10 -645 -6 -43 -5 -61 -12 -82 -35 -53 -57 -46 -162
13 -213 29 -24 34 -24 117 -17 141 12 623 8 804 -7 200 -16 266 -8 378 47 88
43 215 163 268 254 52 88 100 205 124 306 20 81 25 91 43 87 51 -12 336 -27
607 -32 370 -7 567 13 818 83 162 46 345 123 420 177 44 33 61 33 89 3z
m-8815 -735 c3 -4 36 -29 73 -54 197 -132 477 -224 818 -267 92 -12 649 -12
795 0 244 19 392 37 665 80 66 10 147 22 180 25 32 4 68 9 80 11 58 12 267 25
480 30 496 12 822 -35 976 -142 62 -42 154 -147 183 -206 43 -90 57 -162 63
-338 l6 -165 -80 75 c-152 143 -321 202 -663 231 -153 13 -763 6 -895 -10
-299 -37 -570 -76 -605 -86 -8 -2 -53 -7 -100 -10 -47 -4 -92 -8 -100 -10 -55
-15 -446 -35 -670 -35 -223 0 -344 13 -570 62 -307 66 -569 212 -631 352 -21
47 -24 69 -27 259 -3 139 -1 207 6 207 6 0 13 -4 16 -9z m10 -810 c18 -28 196
-129 321 -182 122 -51 324 -99 549 -129 283 -38 771 -21 1246 44 58 8 116 17
130 20 14 2 66 9 115 15 50 7 113 16 140 21 28 5 79 11 115 14 36 3 94 9 130
13 83 10 821 10 880 1 25 -5 68 -10 95 -14 76 -8 214 -48 281 -80 86 -42 191
-150 238 -246 46 -93 68 -221 64 -378 l-3 -108 -59 55 c-153 143 -312 204
-629 237 -269 29 -798 17 -1092 -24 -38 -6 -106 -15 -150 -20 -44 -5 -105 -14
-135 -20 -111 -20 -348 -50 -450 -56 -58 -3 -132 -10 -165 -14 -89 -11 -621
-12 -696 -1 -35 5 -91 12 -123 16 -58 6 -211 40 -311 68 -75 21 -216 80 -292
123 -85 47 -194 154 -212 209 -9 26 -15 112 -18 243 -4 177 -3 202 10 202 9 0
18 -4 21 -9z m57 -847 c177 -120 399 -200 714 -256 121 -21 156 -23 495 -22
201 0 415 6 475 12 270 28 312 33 335 37 14 3 59 10 100 15 41 6 116 17 165
25 50 7 110 16 135 19 25 3 79 10 120 16 217 29 694 39 955 20 352 -26 529
-102 650 -279 54 -79 81 -156 95 -264 11 -87 13 -207 5 -207 -3 0 -34 15 -68
33 -165 89 -414 155 -692 181 -96 10 -720 7 -840 -3 -189 -17 -468 -54 -610
-81 -27 -5 -111 -17 -185 -25 -74 -9 -148 -17 -165 -20 -69 -10 -259 -16 -544
-15 -341 0 -390 3 -546 32 -381 71 -587 226 -655 493 -19 74 -40 345 -27 345
3 0 43 -25 88 -56z"/>
</g>
</svg>
